<?xml version="1.0" encoding="UTF-8"?>
<!-- Generated by Pixelmator Pro 3.6.6 -->
<svg width="19" height="19" viewBox="0 0 19 19" xmlns="http://www.w3.org/2000/svg">
    <path id="Clock-kopie" fill="#b3b3b3" fill-rule="evenodd" stroke="none" d="M 9.498047 18.996094 C 4.252269 18.996094 0 14.743764 0 9.498047 C 0 4.252453 4.252269 0 9.498047 0 C 14.743671 0 18.996094 4.252453 18.996094 9.498047 C 18.996094 14.743764 14.743671 18.996094 9.498047 18.996094 Z M 9.498047 17.103516 C 13.698387 17.103516 17.101563 13.6986 17.101563 9.498047 C 17.101563 5.297615 13.698387 1.912109 9.498047 1.912109 C 5.297524 1.912109 1.892578 5.297615 1.892578 9.498047 C 1.892578 13.6986 5.297524 17.103516 9.498047 17.103516 Z M 9.486328 10.617188 C 8.94391 10.617188 8.550781 10.223998 8.550781 9.681641 L 8.550781 8.373047 L 8.550781 3.601563 C 8.550781 3.058961 8.94391 2.619141 9.486328 2.619141 C 10.02896 2.619141 10.46875 3.058961 10.46875 3.601563 L 10.46875 8.679688 L 14.070313 8.699219 C 14.612884 8.699219 15.052734 9.139283 15.052734 9.681641 C 15.052734 10.223998 14.612884 10.617188 14.070313 10.617188 L 9.486328 10.617188 Z"/>
</svg>
